<?xml version="1.0" encoding="UTF-8" standalone="no"?>
<svg width="339px" height="452px" viewBox="0 0 339 452" version="1.1" xmlns="http://www.w3.org/2000/svg" xmlns:xlink="http://www.w3.org/1999/xlink" xmlns:sketch="http://www.bohemiancoding.com/sketch/ns">
    <!-- Generator: Sketch 3.4.3 (16618) - http://www.bohemiancoding.com/sketch -->
    <title>Untitled 7</title>
    <desc>Created with Sketch.</desc>
    <defs></defs>
    <g id="Page-1" stroke="none" stroke-width="1" fill="none" fill-rule="evenodd" sketch:type="MSPage">
        <g id="Yin_yang" sketch:type="MSLayerGroup" fill="#000000">
            <path d="M226,226 C288.408177,226 339,175.408176 339,113 C339,50.5918233 288.408177,3.55271368e-15 226,0 C101.183647,2.30926389e-14 1.33226763e-14,101.183647 2.84217094e-14,226 C4.35207426e-14,350.816353 101.183647,452 226,452 C163.591823,452 113,401.408177 113,339 C113,276.591823 163.591823,226 226,226 Z M226,143 C242.568542,143 256,129.568542 256,113 C256,96.4314575 242.568542,83 226,83 C209.431458,83 196,96.4314575 196,113 C196,129.568542 209.431458,143 226,144 Z" id="Shape" sketch:type="MSShapeGroup"></path>
        </g>
    </g>
</svg>